<svg xmlns="http://www.w3.org/2000/svg" viewBox="0 0 1793 319" width="1793" height="319">
	<defs>
		<clipPath clipPathUnits="userSpaceOnUse" id="cp1">
			<path d="M0 -2L1794 -2L1794 319L0 319Z" />
		</clipPath>
	</defs>
	<style>
		tspan { white-space:pre }
		.shp0 { fill: #fff }
	</style>
	<g id="Page 1" clip-path="url(#cp1)">
		<path id="Path 1" fill-rule="evenodd" class="shp0" d="M204.48 97.44L158.5 97.44L150.34 121.42L125.54 121.42L169.95 1.53L192.86 1.53L237.44 121.42L212.63 121.42L204.48 97.44ZM197.56 77.17L181.49 30.12L181.32 30.12L165.34 77.17L197.56 77.17ZM318.46 122.82C303.06 122.82 287.4 116.89 274.8 103.95L289.05 86.4C298.04 96.7 309.49 101.4 318.88 101.4C330.33 101.4 336.1 96.12 336.1 88.71C336.1 79.89 329.75 76.76 315.26 71.73C297.12 65.39 279 56.99 279 34.41C279 15.13 295.97 0.38 317.47 0.13C332.31 -0.03 346.15 5.57 357.85 15.21L344.17 33.09C334.2 24.93 325.55 21.31 318.05 21.31C309.81 21.31 303.71 25.75 303.63 33.33C303.55 40.83 310.06 43.96 323.82 49.32C344.5 57.39 360.9 62.83 360.9 85.9C360.9 112.11 338.07 122.82 318.46 122.82L318.46 122.82ZM446.54 122.82C431.13 122.82 415.48 116.89 402.87 103.95L417.13 86.4C426.11 96.7 437.56 101.4 446.96 101.4C458.41 101.4 464.18 96.12 464.18 88.71C464.18 79.89 457.83 76.76 443.33 71.73C425.2 65.39 407.07 56.99 407.07 34.41C407.07 15.13 424.05 0.38 445.55 0.13C460.39 -0.03 474.23 5.57 485.93 15.21L472.25 33.09C462.28 24.93 453.63 21.31 446.13 21.31C437.89 21.31 431.79 25.75 431.71 33.33C431.63 40.83 438.14 43.96 451.9 49.32C472.58 57.39 488.98 62.83 488.98 85.9C488.98 112.11 466.15 122.82 446.54 122.82L446.54 122.82ZM605.69 97.44L559.71 97.44L551.55 121.42L526.75 121.42L571.16 1.53L594.07 1.53L638.65 121.42L613.84 121.42L605.69 97.44ZM598.76 77.17L582.7 30.12L582.53 30.12L566.55 77.17L598.76 77.17ZM734.01 122.57C699.49 122.57 672.87 100.07 672.87 61.68C672.87 26.66 695.62 0.13 733.02 0.13C750 0.13 768.29 6.72 780.65 20.64L763.84 34.9C756.43 27.73 746.21 22.46 733.02 22.46C713.33 22.46 697.59 37.21 697.59 61.68C697.59 83.68 711.52 100.9 734.01 100.9C742.66 100.9 750.66 98.84 758.32 94.06L758.32 81.82L740.75 81.82L731.38 61.47L781.23 61.47L781.23 107.74C770.35 116.56 752.47 122.57 734.01 122.57L734.01 122.57ZM834.24 1.53L910.87 1.53L910.87 22.79L857.64 22.79L857.64 51.54L900.32 51.54L900.32 72.47L857.64 72.47L857.64 100.24L914.41 100.24L914.41 121.42L834.24 121.42L834.24 1.53ZM95.43 41.49C95.43 67.78 77.88 80.38 51.51 80.38L32.81 80.38L32.81 121.42L9.41 121.42L9.41 59.37L48.55 59.37C63.46 59.37 70.88 52.04 70.88 41C70.88 29.87 63.38 22.62 49.54 22.62L9.38 22.62L0 1.53L53.74 1.53C82.83 1.53 95.43 18.5 95.43 41.49ZM1152.26 1.53L1176.16 1.53L1176.16 121.4L1152.26 121.4L1152.26 1.53ZM1244.94 22.79L1211.9 22.79L1211.9 1.53L1301.78 1.53L1301.78 22.79L1268.58 22.79L1268.58 121.4L1244.94 121.4L1244.94 22.79ZM1437.71 1.53L1437.71 121.4L1413.4 121.4L1360.68 41.98L1360.35 41.98L1360.35 121.4L1336.7 121.4L1336.7 1.53L1360.35 1.53L1413.65 82.52L1413.98 82.52L1413.98 1.53L1437.71 1.53ZM1480.86 1.53L1557.48 1.53L1557.48 22.79L1504.26 22.79L1504.26 51.54L1546.94 51.54L1546.94 72.47L1504.26 72.47L1504.26 100.23L1561.03 100.23L1561.03 121.4L1480.86 121.4L1480.86 1.53ZM1635 122.81C1619.59 122.81 1603.94 116.87 1591.33 103.94L1605.59 86.39C1614.57 96.69 1626.02 101.39 1635.41 101.39C1646.86 101.39 1652.63 96.11 1652.63 88.7C1652.63 79.88 1646.29 76.75 1631.78 71.73C1613.66 65.38 1595.53 56.98 1595.53 34.41C1595.53 15.13 1612.51 0.38 1634.01 0.13C1648.84 -0.03 1662.68 5.57 1674.38 15.21L1660.7 33.09C1650.73 24.93 1642.08 21.3 1634.58 21.3C1626.34 21.3 1620.25 25.75 1620.16 33.33C1620.08 40.83 1626.59 43.96 1640.35 49.32C1661.03 57.39 1677.43 62.83 1677.43 85.9C1677.43 112.1 1654.61 122.8 1635 122.8L1635 122.81ZM1750.41 122.81C1735 122.81 1719.35 116.87 1706.74 103.94L1720.99 86.39C1729.98 96.69 1741.43 101.39 1750.82 101.39C1762.27 101.39 1768.04 96.11 1768.04 88.7C1768.04 79.88 1761.7 76.75 1747.2 71.73C1729.07 65.38 1710.94 56.98 1710.94 34.41C1710.94 15.13 1727.91 0.38 1749.42 0.13C1764.25 -0.03 1778.09 5.57 1789.79 15.21L1776.11 33.09C1766.14 24.93 1757.49 21.3 1750 21.3C1741.76 21.3 1735.66 25.75 1735.58 33.33C1735.49 40.83 1742 43.96 1755.76 49.32C1776.44 57.39 1792.84 62.83 1792.84 85.9C1792.84 112.1 1770.01 122.8 1750.41 122.8L1750.41 122.81ZM1098.97 25.02L1058.94 25.02L1058.94 121.42L1035.45 121.42L1035.45 1.53L1108.6 1.53L1098.97 25.02ZM1069.27 59.31L1092.66 59.31L1092.66 80.45L1077.94 80.45L1069.27 59.31ZM803.26 307.49L803.26 236.19L839.84 236.19L839.84 248.41L817.22 248.41L817.22 265.42L837.39 265.42L837.39 277.24L817.22 277.24L817.22 295.67L840.24 295.67L840.24 307.49L803.26 307.49ZM888.53 236.19L895.76 265.22L896.17 265.22L903.4 236.19L917.46 236.19L907.68 270.21L918.17 307.49L903.7 307.49L896.17 276.93L895.76 276.93L888.22 307.49L873.76 307.49L884.25 270.21L874.47 236.19L888.53 236.19Z" />
		<path id="Path 2" fill-rule="evenodd" class="shp0" d="M949.85 307.49L949.85 236.19L977.45 236.19C982.07 238.22 985.72 241.35 988.4 245.56C991.09 249.77 992.43 254.67 992.43 260.27C992.43 265.87 991.04 271.06 988.25 275.81C985.47 280.56 981.36 283.93 975.92 285.89L963.6 285.89L963.6 307.49L949.85 307.49ZM963.6 248.41L963.6 273.87L972.67 273.87C976.4 270.82 978.27 266.34 978.27 260.43C978.27 257.92 977.78 255.54 976.8 253.3C975.81 251.06 974.64 249.42 973.28 248.41L963.6 248.41ZM1025.33 307.49L1025.33 236.19L1061.9 236.19L1061.9 248.41L1039.28 248.41L1039.28 265.42L1059.45 265.42L1059.45 277.24L1039.28 277.24L1039.28 295.67L1062.3 295.67L1062.3 307.49L1025.33 307.49ZM1095.62 236.19L1122.71 236.19C1126.99 237.61 1130.64 240.24 1133.66 244.08C1136.68 247.92 1138.2 252.62 1138.2 258.19C1138.2 267.29 1134.6 273.97 1127.4 278.25L1137.69 307.49L1123.42 307.49L1114.77 281.51L1109.37 281.51L1109.37 307.49L1095.62 307.49L1095.62 236.19ZM1109.37 248.41L1109.37 270.1L1118.13 270.1C1119.28 269.83 1120.56 268.66 1121.95 266.59C1123.34 264.52 1124.04 262.09 1124.04 259.31C1124.04 256.52 1123.44 254.08 1122.25 251.97C1121.06 249.87 1119.89 248.68 1118.74 248.41L1109.37 248.41ZM1171 307.49L1171 236.19L1184.95 236.19L1184.95 307.49L1171 307.49ZM1220.19 307.49L1220.19 236.19L1256.76 236.19L1256.76 248.41L1234.15 248.41L1234.15 265.42L1254.32 265.42L1254.32 277.24L1234.15 277.24L1234.15 295.67L1257.17 295.67L1257.17 307.49L1220.19 307.49ZM1318.49 307.49L1299.44 268.07L1298.93 268.27L1299.54 280.29L1299.54 307.49L1286.71 307.49L1286.71 236.19L1296.99 236.19L1315.74 277.13L1316.24 276.93L1315.12 264.4L1315.12 236.19L1327.96 236.19L1327.96 307.49L1318.49 307.49ZM1379.19 295.67L1397.12 295.67L1397.12 307.49L1371.25 307.49C1366.76 303.28 1363.37 297.95 1361.06 291.5C1358.75 285.05 1357.6 278.41 1357.6 271.58C1357.6 264.76 1358.89 258.19 1361.47 251.87C1364.05 245.56 1367.89 240.32 1372.98 236.19L1397.12 236.19L1397.12 248.41L1379.19 248.41C1377.36 250.51 1375.78 253.91 1374.46 258.59C1373.13 263.28 1372.47 267.76 1372.47 272.04C1372.47 276.32 1373.13 280.8 1374.46 285.49C1375.78 290.17 1377.36 293.57 1379.19 295.67ZM1430.02 307.49L1430.02 236.19L1466.59 236.19L1466.59 248.41L1443.97 248.41L1443.97 265.42L1464.15 265.42L1464.15 277.24L1443.97 277.24L1443.97 295.67L1467 295.67L1467 307.49L1430.02 307.49ZM343.97 295.67L352.53 295.67C354.02 294.04 355.09 292.4 355.74 290.73C356.38 289.07 356.71 286.61 356.71 283.35L356.71 236.19L370.66 236.19L370.66 278.25C370.66 281.72 370.58 284.41 370.41 286.35C370.24 288.29 369.81 290.65 369.13 293.43C367.98 298.39 364.79 303.07 359.56 307.49L336.94 307.49C331.71 303.21 328.52 298.52 327.37 293.43C326.35 289.29 325.84 284.23 325.84 278.25L325.84 236.19L339.8 236.19L339.8 283.35C339.8 286.61 340.11 289.07 340.76 290.73C341.4 292.4 342.47 294.04 343.97 295.67ZM437.17 307.49L418.12 268.07L417.62 268.27L418.22 280.29L418.22 307.49L405.39 307.49L405.39 236.19L415.68 236.19L434.42 277.13L434.93 276.93L433.81 264.4L433.81 236.19L446.65 236.19L446.65 307.49L437.17 307.49ZM481.89 307.49L481.89 236.19L495.85 236.19L495.85 307.49L481.89 307.49Z" />
		<path id="Path 3" fill-rule="evenodd" class="shp0" d="M564.3 236.19C569.05 240.05 572.58 245.25 574.89 251.77C577.2 258.29 578.36 265 578.36 271.89C578.36 278.78 577.24 285.32 575 291.5C572.75 297.68 569.19 303 564.3 307.49L560.94 307.49L564.1 319L551.06 319L547.9 307.49L543.32 307.49C538.42 303 534.86 297.68 532.62 291.5C530.38 285.32 529.26 278.78 529.26 271.89C529.26 265 530.41 258.29 532.72 251.77C535.03 245.25 538.56 240.05 543.32 236.19L564.3 236.19ZM550.14 295.67L557.47 295.67C559.17 293.7 560.62 290.5 561.8 286.05C562.99 281.6 563.59 276.9 563.59 271.94C563.59 266.98 563.01 262.31 561.85 257.93C560.7 253.55 559.27 250.38 557.57 248.41L550.14 248.41C548.44 250.38 547 253.55 545.81 257.93C544.62 262.31 544.03 266.98 544.03 271.94C544.03 276.9 544.62 281.6 545.81 286.05C547 290.5 548.44 293.7 550.14 295.67ZM629.39 295.67L637.94 295.67C639.44 294.04 640.51 292.4 641.16 290.73C641.8 289.07 642.12 286.61 642.12 283.35L642.12 236.19L656.08 236.19L656.08 278.25C656.08 281.72 655.99 284.41 655.82 286.35C655.65 288.29 655.23 290.65 654.55 293.43C653.4 298.39 650.2 303.07 644.97 307.49L622.36 307.49C617.13 303.21 613.94 298.52 612.79 293.43C611.76 289.29 611.26 284.23 611.26 278.25L611.26 236.19L625.21 236.19L625.21 283.35C625.21 286.61 625.53 289.07 626.18 290.73C626.83 292.4 627.9 294.04 629.39 295.67ZM687.04 307.49L687.04 236.19L723.61 236.19L723.61 248.41L700.99 248.41L700.99 265.42L721.16 265.42L721.16 277.24L700.99 277.24L700.99 295.67L724.01 295.67L724.01 307.49L687.04 307.49Z" />
	</g>
</svg>